<svg width="10" height="12" viewBox="0 0 10 12" fill="none" xmlns="http://www.w3.org/2000/svg">
<path d="M9.99541 2.82904C9.99541 2.78345 9.98625 2.73786 9.96791 2.69481C9.93122 2.6087 9.86016 2.55044 9.78221 2.53271L5.11233 0.0303926C5.03668 -0.0101309 4.94727 -0.0101309 4.87162 0.0303926L0.155892 2.55551C0.0641908 2.60363 0.00458505 2.70494 0 2.81891V2.82144C0 2.82398 0 2.82651 0 2.83157V9.16843C0 9.28493 0.0596057 9.3913 0.155892 9.44196L4.87162 11.9671C4.87391 11.9671 4.87391 11.9671 4.8762 11.9696C4.88308 11.9721 4.88996 11.9747 4.89684 11.9797C4.89913 11.9797 4.90142 11.9823 4.90601 11.9823C4.91288 11.9848 4.91976 11.9873 4.92664 11.9899C4.92893 11.9899 4.93122 11.9924 4.93352 11.9924C4.94039 11.9949 4.94956 11.9949 4.95644 11.9975C4.95873 11.9975 4.96103 11.9975 4.96332 11.9975C4.97249 11.9975 4.98395 12 4.99312 12C5.00229 12 5.01375 12 5.02292 11.9975C5.02522 11.9975 5.02751 11.9975 5.0298 11.9975C5.03668 11.9975 5.04585 11.9949 5.05273 11.9924C5.05502 11.9924 5.05731 11.9899 5.05961 11.9899C5.06648 11.9873 5.07336 11.9848 5.08024 11.9823C5.08253 11.9823 5.08482 11.9797 5.08941 11.9797C5.09629 11.9772 5.10316 11.9747 5.11004 11.9696C5.11233 11.9696 5.11233 11.9696 5.11463 11.9671L9.84411 9.43436C9.9381 9.38371 10 9.27733 10 9.16083V2.83664C9.99541 2.83411 9.99541 2.83157 9.99541 2.82904ZM4.99083 0.640777L9.0807 2.83157L7.57451 3.63951L3.48464 1.44871L4.99083 0.640777ZM4.99083 5.02237L0.900963 2.83157L2.8542 1.78556L6.94406 3.97636L4.99083 5.02237ZM0.550206 3.32039L4.71573 5.55171V11.2073L0.550206 8.97594V3.32039ZM5.26593 11.2073V5.55171L7.22146 4.50317V5.98227C7.22146 6.14943 7.34525 6.2862 7.49656 6.2862C7.64787 6.2862 7.77166 6.14943 7.77166 5.98227V4.20684L9.44521 3.31026V8.96581L5.26593 11.2073Z" fill="#202020"/>
</svg>
