<svg width="10" height="8" viewBox="0 0 10 8" fill="none" xmlns="http://www.w3.org/2000/svg">
<path d="M5 8C4.85764 8 4.72038 7.95362 4.61342 7.86938C4.20944 7.55174 3.81996 7.25325 3.47633 6.98995L3.47458 6.98858C2.46712 6.21658 1.59714 5.54989 0.991821 4.89315C0.31517 4.15895 0 3.46283 0 2.70236C0 1.9635 0.281754 1.28186 0.793304 0.782904C1.31096 0.27805 2.02126 0 2.79358 0C3.37082 0 3.89946 0.1641 4.36478 0.487703C4.59961 0.651048 4.81247 0.850959 5 1.08414C5.18761 0.850959 5.40039 0.651048 5.6353 0.487703C6.10062 0.1641 6.62926 0 7.2065 0C7.97874 0 8.68912 0.27805 9.20677 0.782904C9.71832 1.28186 10 1.9635 10 2.70236C10 3.46283 9.68491 4.15895 9.00826 4.89308C8.40294 5.54989 7.53304 6.21651 6.52573 6.98844C6.18149 7.25215 5.7914 7.55113 5.38651 7.86952C5.27962 7.95362 5.14229 8 5 8ZM2.79358 0.526738C2.18681 0.526738 1.62941 0.744486 1.22391 1.13992C0.812378 1.54132 0.585709 2.09618 0.585709 2.70236C0.585709 3.34195 0.850067 3.91397 1.44279 4.55706C2.01569 5.17868 2.86781 5.83165 3.85445 6.58773L3.85628 6.5891C4.2012 6.85343 4.59221 7.15309 4.99916 7.47306C5.40855 7.15247 5.80017 6.85233 6.14578 6.58759C7.13234 5.83151 7.98439 5.17868 8.55728 4.55706C9.14993 3.91397 9.41429 3.34195 9.41429 2.70236C9.41429 2.09618 9.18762 1.54132 8.77609 1.13992C8.37067 0.744486 7.81319 0.526738 7.2065 0.526738C6.76201 0.526738 6.35391 0.653792 5.99358 0.904332C5.67245 1.12771 5.44876 1.41008 5.31761 1.60766C5.25017 1.70926 5.13145 1.7699 5 1.7699C4.86855 1.7699 4.74983 1.70926 4.68239 1.60766C4.55132 1.41008 4.32762 1.12771 4.00642 0.904332C3.64609 0.653792 3.23799 0.526738 2.79358 0.526738Z" fill="#202020"/>
</svg>
