<svg width="6" height="10" viewBox="0 0 6 10" fill="none" xmlns="http://www.w3.org/2000/svg">
<path d="M5.98079 3.43334C5.94555 3.36668 5.8927 3.33334 5.82224 3.33334H3.7435L5.80463 0.25C5.83987 0.2 5.83987 0.13334 5.80463 0.0833398C5.76939 0.0333399 5.71654 0 5.64608 0H2.82745C2.75699 0 2.70414 0.0333399 2.6689 0.0833398L0.0264299 5.08334C-0.00880996 5.13334 -0.00880996 5.2 0.0264299 5.25C0.0616697 5.3 0.132129 5.33334 0.184978 5.33334H1.99947L0.0264299 9.78334C-0.00880996 9.85 0.0264299 9.93334 0.096889 9.98334C0.114499 10 0.149738 10 0.184978 10C0.237828 10 0.290677 9.98334 0.325917 9.95L5.9632 3.61666C5.99842 3.56666 6.01603 3.5 5.98079 3.43334ZM0.801541 8.88334L2.42226 5.21668C2.43987 5.16668 2.43987 5.11668 2.40465 5.06668C2.36942 5.03334 2.31657 5.00002 2.26372 5.00002H0.466835L2.93315 0.33334H5.32898L3.25025 3.41666C3.21501 3.46666 3.21501 3.53332 3.25025 3.58332C3.28549 3.63332 3.33834 3.66666 3.40879 3.66666H5.45231L0.801541 8.88334Z" fill="#202020"/>
</svg>
