<svg width="9" height="11" viewBox="0 0 9 11" fill="none" xmlns="http://www.w3.org/2000/svg">
<path d="M8.9977 9.50859L8.35386 2.41595C8.34006 2.25849 8.2044 2.13926 8.04573 2.13926H6.72126C6.70286 0.956033 5.7141 0 4.5 0C3.2859 0 2.29714 0.956033 2.27874 2.13926H0.954267C0.793306 2.13926 0.659939 2.25849 0.646142 2.41595L0.00229949 9.50859C0.00229949 9.51759 0 9.52658 0 9.53558C0 10.3431 0.756515 11 1.68779 11H7.31221C8.24348 11 9 10.3431 9 9.53558C9 9.52658 9 9.51759 8.9977 9.50859ZM4.5 0.607362C5.37149 0.607362 6.08201 1.29121 6.10041 2.13926H2.89959C2.91799 1.29121 3.62851 0.607362 4.5 0.607362ZM7.31221 10.3926H1.68779C1.10373 10.3926 0.630046 10.0147 0.620848 9.54908L1.2371 2.74888H2.27644V3.67117C2.27644 3.83988 2.41441 3.97485 2.58687 3.97485C2.75933 3.97485 2.89729 3.83988 2.89729 3.67117V2.74888H6.10041V3.67117C6.10041 3.83988 6.23838 3.97485 6.41083 3.97485C6.58329 3.97485 6.72126 3.83988 6.72126 3.67117V2.74888H7.7606L8.37915 9.54908C8.36995 10.0147 7.89397 10.3926 7.31221 10.3926Z" fill="white"/>
</svg>
